Coordinates
version=1
nRows=15
nColumns=34
inDegrees=yes

Units are S.I. units (second, meters, Newtons, ...)
If the header above contains a line with 'inDegrees', this indicates whether rotational values are in degrees (yes) or radians (no).

endheader
time	pelvis_tilt	pelvis_list	pelvis_rotation	pelvis_tx	pelvis_ty	pelvis_tz	hip_flexion_r	hip_adduction_r	hip_rotation_r	knee_angle_r	ankle_angle_r	subtalar_angle_r	mtp_angle_r	hip_flexion_l	hip_adduction_l	hip_rotation_l	knee_angle_l	ankle_angle_l	subtalar_angle_l	mtp_angle_l	lumbar_extension	lumbar_bending	lumbar_rotation	arm_flex_r	arm_add_r	arm_rot_r	elbow_flex_r	pro_sup_r	arm_flex_l	arm_add_l	arm_rot_l	elbow_flex_l	pro_sup_l
      5.41666670	      4.34505865	     -3.54199217	   -173.77987570	      0.12215647	      1.08859851	      0.12325686	     48.52836344	     -4.19697364	     -1.06947362	     54.60892049	     -3.12013611	    -17.10018702	      0.00000000	    -16.03156557	      3.18449684	     -1.49586791	     32.54043673	    -22.24572281	     -6.94928761	      0.00000000	    -13.60956638	     -7.73585123	    -21.65089198	    -39.29087976	    -17.32296164	     -1.82301259	     98.45482670	     94.43815141	     24.07708163	    -23.54323074	     14.66586086	    103.14787763	     85.18284199
      5.42500000	      3.12937586	     -4.60649898	   -174.03913563	      0.12228740	      1.09367428	      0.12401652	     45.51613820	     -5.01596345	     -1.06058764	     45.89163408	     -5.63634857	    -13.57360053	      0.00000000	    -17.91865252	      4.37194354	     -0.30880841	     35.32807333	    -22.38718086	     -9.56005580	      0.00000000	    -15.03760952	     -8.47202540	    -21.55507359	    -38.93409025	    -16.97710423	     -1.62543682	     98.21822265	     94.90781051	     24.68476020	    -22.88858609	     16.31399951	    101.25853551	     84.26366053
      5.43333330	      2.01103040	     -5.58270698	   -174.03960404	      0.12250756	      1.09729721	      0.12504494	     42.31609804	     -6.07793587	     -1.83637402	     37.32283491	     -8.42297839	    -10.30506987	      0.00000000	    -19.31120384	      5.39702835	      1.00125392	     39.04615794	    -21.18941033	    -11.99253790	      0.00000000	    -16.20053226	     -9.00531866	    -21.84621800	    -38.46945549	    -16.60763126	     -1.91380763	     98.37374592	     95.19278947	     25.08465019	    -22.57292549	     17.53581275	     99.43914428	     83.39006347
      5.44166670	      0.64808267	     -6.73404832	   -173.99537007	      0.12300355	      1.10001190	      0.12587532	     38.78920524	     -7.21697451	     -2.82051041	     29.39544772	    -10.87843743	     -6.18631338	      0.00000000	    -20.70879179	      6.53295741	      2.20192144	     43.37736712	    -20.12551331	    -14.56662974	      0.00000000	    -17.71399001	     -9.64574665	    -21.85035311	    -38.07919072	    -16.20176224	     -2.35045805	     98.66913817	     95.49209181	     26.33380294	    -22.18463521	     19.33766893	     97.38353576	     82.15699330
      5.45000000	     -0.29819921	     -7.89662969	   -173.60543619	      0.12340277	      1.10097147	      0.12720407	     35.77046153	     -8.49684576	     -3.99056572	     22.52521784	    -13.00657222	     -2.70804495	      0.00000000	    -21.39542750	      7.68383767	      3.64953888	     48.35461278	    -19.06945693	    -16.90916757	      0.00000000	    -18.57006980	    -10.25098053	    -21.84473269	    -37.87577035	    -15.57429404	     -3.04240626	     99.08397490	     95.62453043	     26.28406631	    -22.30718224	     20.89067820	     97.79681693	     81.49123242
      5.45833330	     -1.52915606	     -8.97023635	   -173.84738131	      0.12392256	      1.10087975	      0.12786098	     33.02214547	     -9.37932054	     -4.76117416	     17.35922616	    -13.80288644	      1.31152053	      0.00000000	    -22.26391612	      8.88394438	      4.26531147	     53.37010070	    -18.73026893	    -19.36069338	      0.00000000	    -19.80780115	    -10.78401999	    -21.08839342	    -37.65694290	    -15.12160798	     -4.09928140	     99.64630265	     96.03779343	     27.16127761	    -22.18241626	     22.87506939	     97.89883865	     79.70504523
      5.46666670	     -2.22808878	     -9.52638860	   -173.74586567	      0.12440045	      1.09964177	      0.12893176	     31.25263217	    -10.00849512	     -5.34268565	     13.95910939	    -14.15527443	      3.73585792	      0.00000000	    -22.25578961	      9.72511808	      4.99590025	     58.81584761	    -18.71071763	    -21.44252229	      0.00000000	    -20.49204978	    -10.69171592	    -20.76039706	    -36.69553846	    -14.97627545	     -4.81657516	     99.62531318	     96.30609041	     27.34958295	    -21.91283108	     24.14694976	     97.98234036	     78.48643560
      5.47500000	     -2.71449485	     -9.63817824	   -173.69007229	      0.12456120	      1.09693072	      0.13003415	     30.06398468	    -10.18040182	     -5.48106961	     12.03997319	    -14.53062446	      4.90919999	      0.00000000	    -21.84784898	     10.07564340	      5.19019427	     64.41505590	    -19.39890864	    -23.02524333	      0.00000000	    -21.02122352	    -10.08205385	    -20.32472850	    -35.54555756	    -15.24181360	     -5.28083945	     99.38272463	     96.42307820	     27.07784435	    -21.65180862	     24.92501828	     98.05834772	     77.89619296
      5.48333330	     -3.29509118	     -9.78245814	   -173.85987123	      0.12573389	      1.09317972	      0.13056248	     29.19209326	    -10.30131990	     -5.38370212	     11.55014207	    -13.68678335	      5.76873560	      0.00000000	    -21.38050267	     10.44507591	      5.12228937	     69.97603247	    -21.00823087	    -24.86496972	      0.00000000	    -21.84380595	     -9.51164464	    -19.70960166	    -33.87094719	    -15.66379461	     -5.49736374	     99.11747038	     96.88555496	     26.61998386	    -21.60904016	     25.78839858	     97.84590675	     75.63964169
      5.49166670	     -3.66186857	     -9.64062477	   -173.87794940	      0.12700834	      1.08776757	      0.13109864	     28.59807932	    -10.14621326	     -5.26077913	     11.80382387	    -13.27599616	      5.29147217	      0.00000000	    -20.36616037	     10.38012681	      4.82009825	     75.83507977	    -22.16831563	    -25.35473244	      0.00000000	    -22.33263544	     -8.56452089	    -18.86871915	    -32.28400269	    -16.07175765	     -5.98015784	     98.80128084	     96.93294361	     25.34764778	    -21.76241203	     26.43413255	     97.66001434	     75.30680164
      5.50000000	     -3.87633742	     -9.66291301	   -173.91897355	      0.12834104	      1.08141481	      0.13137751	     28.30764759	    -10.10071990	     -4.77625095	     12.93878940	    -12.53292891	      3.96312263	      0.00000000	    -18.91428482	     10.36564981	      4.40829326	     81.69326268	    -23.52731627	    -26.30493072	      0.00000000	    -22.62362215	     -7.99217002	    -18.14330691	    -30.39044519	    -16.77118565	     -5.92668008	     98.36950819	     97.08120360	     23.58305903	    -22.24846418	     26.99376607	     97.26219753	     74.72194208
      5.50833330	     -3.83311687	     -9.82713692	   -173.94163261	      0.12997479	      1.07364320	      0.13128014	     28.44371937	    -10.14116742	     -4.03873492	     14.99559354	    -11.54994932	      2.21351352	      0.00000000	    -16.97112420	     10.40143387	      3.97631960	     87.48364515	    -24.12356587	    -26.14060411	      0.00000000	    -22.69440683	     -7.68381037	    -17.52730284	    -28.36832498	    -17.83414211	     -5.12242326	     97.72935840	     97.33254087	     21.02572304	    -23.21988747	     26.99662054	     97.04230738	     73.95855567
      5.51666670	     -3.85105888	     -9.96184210	   -173.99507083	      0.13113278	      1.06586782	      0.13119123	     28.52281116	    -10.13091804	     -3.59285988	     17.83960773	    -10.07243262	      0.16005632	      0.00000000	    -14.93727307	     10.30469198	      3.45532934	     92.93951946	    -23.89605941	    -25.92637505	      0.00000000	    -22.71596266	     -7.37833235	    -16.98789291	    -25.98659953	    -19.12339632	     -3.89122577	     96.97185728	     97.57957509	     17.63100406	    -24.59002591	     26.40472369	     96.80941012	     73.45174336
      5.52500000	     -3.77596826	     -9.96971296	   -174.13300457	      0.13223884	      1.05778353	      0.13136614	     28.52604504	    -10.02126712	     -3.83363982	     20.94422038	     -8.58321268	     -1.45798757	      0.00000000	    -12.63034252	     10.11613695	      2.79498287	     98.14959393	    -23.60603068	    -25.81719843	      0.00000000	    -22.81504725	     -6.90368236	    -15.73329923	    -24.21413401	    -20.23109859	     -3.61445020	     97.11765115	     97.63698575	     14.93952502	    -25.96293536	     26.96676523	     95.61956789	     73.53926701
      5.53333330	     -3.36018830	    -10.11274236	   -174.27696192	      0.13327283	      1.04984201	      0.13113086	     29.00266486	     -9.99189179	     -3.68998695	     24.89728217	     -6.95362698	     -3.62712464	      0.00000000	     -9.70041608	     10.12737588	      2.23001672	    103.10427408	    -23.02925741	    -25.52878838	      0.00000000	    -22.58349392	     -6.72843065	    -14.53302152	    -21.99542042	    -21.69307681	     -2.45413882	     96.29669221	     97.77890134	     12.17140989	    -27.09750434	     26.91123230	     93.74326243	     73.88362173
